<?xml version="1.0" encoding="UTF-8" standalone="no" ?>
<!DOCTYPE svg PUBLIC "-//W3C//DTD SVG 1.1//EN" "http://www.w3.org/Graphics/SVG/1.1/DTD/svg11.dtd">
<svg xmlns="http://www.w3.org/2000/svg" xmlns:xlink="http://www.w3.org/1999/xlink" version="1.1" width="1280" height="1024" viewBox="0 0 1280 1024" xml:space="preserve">
<desc>Created with Fabric.js 5.3.0</desc>
<defs>
</defs>
<g transform="matrix(1 0 0 1 640 512)" id="background-logo"  >
<rect style="stroke: none; stroke-width: 0; stroke-dasharray: none; stroke-linecap: butt; stroke-dashoffset: 0; stroke-linejoin: miter; stroke-miterlimit: 4; fill: rgb(1,12,22); fill-rule: nonzero; opacity: 1;"  paint-order="stroke"  x="-640" y="-512" rx="0" ry="0" width="1280" height="1024" />
</g>
<g transform="matrix(1.9211538461538462 0 0 1.9211538461538462 640 406.4169686376068)" id="logo-logo"  >
<g style=""  paint-order="stroke"   >
		<g transform="matrix(1.1250005297502552 0 0 1.1250005297502552 -18.491185854450407 0)"  >
<g style=""  paint-order="stroke"   >
		<g transform="matrix(1 0 0 1 1.421085e-14 0)"  >
<linearGradient id="SVGID_2_49906" gradientUnits="userSpaceOnUse" gradientTransform="matrix(0 1 -1 0 1025.3688965 -316.7246704)"  x1="390.9700012" y1="854.8320312" x2="478.5619507" y2="989.189209">
<stop offset="0%" style="stop-color:rgb(20,27,49);stop-opacity: 1"/>
<stop offset="62.931000000000004%" style="stop-color:rgb(44,112,170);stop-opacity: 1"/>
<stop offset="100%" style="stop-color:rgb(23,156,196);stop-opacity: 1"/>
</linearGradient>
<path style="stroke: none; stroke-width: 1; stroke-dasharray: none; stroke-linecap: butt; stroke-dashoffset: 0; stroke-linejoin: miter; stroke-miterlimit: 4; fill: url(#SVGID_2_49906); fill-rule: nonzero; opacity: 1;"  paint-order="stroke"  transform=" translate(-123.69057901755673, -139.5461101032181)" d="M 75.5462723 223.2279205 C 68.073227 219.77040100000002 62.910388999999995 213.3362121 58.848293299999995 206.17327880000002 C 55.685371399999994 200.6227417 53.42181779999999 194.57604980000002 51.96441649999999 188.3434296 C 47.09606929999999 167.6762696 46.69294359999999 145.39672860000002 53.638801599999994 125.22571570000001 C 54.165988899999995 123.67530070000001 54.755157499999996 122.12487800000001 55.375267099999995 120.60549170000002 L 58.848293399999996 119.41163640000002 L 59.747467099999994 124.82259370000003 C 63.34445959999999 118.06277470000003 70.2167283 111.00017550000003 70.2167283 111.00017550000003 C 66.1391145 111.44976810000003 62.7243463 112.20214080000002 58.755272 113.34953310000003 C 61.1428872 108.83774570000003 63.9181062 104.54305270000003 67.0965501 100.55854800000003 L 73.65480050000001 99.58177950000002 L 73.56178290000001 105.07023620000002 C 78.32158670000001 99.08563230000003 86.9728699 93.42655180000003 86.9728699 93.42655180000003 C 82.6317063 93.20947260000003 77.90293890000001 93.47311400000002 72.8795929 94.09322360000003 C 77.6083603 89.33341980000003 82.98837280000001 85.27131660000003 88.9264145 82.09297180000003 C 77.45335390000001 72.48033900000003 54.662136100000005 65.30187990000003 54.662136100000005 65.30187990000003 C 51.762851700000006 64.44916540000003 53.483799000000005 63.50343320000003 53.483799000000005 63.50343320000003 C 82.1510849 49.54963680000003 134.6483498 58.09247590000003 159.0520668 62.71269990000003 C 173.3158607 65.42594150000004 190.0449867 68.10813900000004 197.4094887 68.40272520000003 C 198.9443856 68.46479800000003 199.5955391 70.37178800000004 198.4171944 71.34856410000003 C 184.571949 82.80619810000003 132.7258339 125.62884520000003 121.4077797 133.50500480000002 C 108.32221600000001 142.60598750000003 109.9501381 136.99345390000002 109.9501381 136.99345390000002 C 112.24482350000001 126.76062000000002 115.57817460000001 117.86121360000001 113.2215996 107.62847130000002 C 97.1436348 112.27973170000001 85.42245100000001 123.47373190000002 77.39127730000001 138.1562804 C 69.34458540000001 152.8232116 66.44530870000001 168.12586960000002 66.08874130000001 184.85498040000002 C 65.98019790000001 189.84729000000002 66.5693626 194.9327087 67.45312120000001 199.8475189 C 68.9414597 208.064743 71.5307312 215.9253998 75.5462723 223.2279205 z" stroke-linecap="round" />
</g>
		<g transform="matrix(1 0 0 1 1.5647228553939527 -2.899386641488036)"  >
<linearGradient id="SVGID_3_49907" gradientUnits="userSpaceOnUse" gradientTransform="matrix(0 1 -1 0 1025.3688965 -316.7246704)"  x1="409.1026611" y1="839.8751221" x2="461.1292725" y2="973.0993652">
<stop offset="0%" style="stop-color:rgb(81,201,240);stop-opacity: 1"/>
<stop offset="29.368%" style="stop-color:rgb(81,201,240);stop-opacity: 1"/>
<stop offset="100%" style="stop-color:rgb(30,105,152);stop-opacity: 1"/>
</linearGradient>
<path style="stroke: none; stroke-width: 1; stroke-dasharray: none; stroke-linecap: butt; stroke-dashoffset: 0; stroke-linejoin: miter; stroke-miterlimit: 4; fill: url(#SVGID_3_49907); fill-rule: nonzero; opacity: 1;"  paint-order="stroke"  transform=" translate(-125.25530187295067, -136.64672346173006)" d="M 67.6546783 212.6695404 C 53.1272316 188.3898926 54.2434921 159.0248871 62.9878921 132.94679259999998 C 65.79415130000001 124.55905149999998 69.4066619 116.23329159999997 75.0811614 109.47347259999998 L 75.0966796 109.45795439999998 C 75.732315 108.69826509999997 76.3835601 107.95399469999998 77.0811767 107.22534179999998 C 86.8333892 97.08552549999999 103.3582 91.87972259999998 116.7693862 87.64701079999998 C 123.2811736 85.60044099999998 133.757492 81.42377469999998 139.9747008 79.96637729999998 L 97.1592635 79.63954169999998 C 90.55445089999999 69.99586489999999 67.83826439999999 64.05159769999997 67.83826439999999 64.05159769999997 C 67.83826439999999 64.05159769999997 74.3959884 62.36314399999998 95.82283009999999 60.828239499999974 C 117.24967179999999 59.27782059999998 152.48657219999998 67.00354769999997 161.168991 68.74010469999997 C 169.851303 70.47657019999997 193.96749870000002 71.59658819999997 193.96749870000002 71.59658819999997 C 193.96749870000002 71.59658819999997 193.95198050000002 71.59658819999997 193.93655390000004 71.61210639999997 L 115.85723870000004 133.05532839999998 C 115.85723870000004 133.05532839999998 114.19827260000004 134.2026215 114.81848140000004 131.72198489999997 C 115.43869020000004 129.24134829999994 119.31474300000004 105.38034059999997 115.90379330000003 103.20970919999996 C 115.90379330000003 103.20970919999996 92.66298670000003 106.89971929999996 79.08127590000004 129.41188049999997 C 53.3132744 172.1879578 67.1895676 211.3826752 67.6546783 212.6695404 z" stroke-linecap="round" />
</g>
		<g transform="matrix(1 0 0 1 4.810347882443253 -55.27800296893811)"  >
<linearGradient id="SVGID_4_49908" gradientUnits="userSpaceOnUse" gradientTransform="matrix(0 1 -1 0 1025.3688965 -316.7246704)"  x1="366.8390808" y1="851.9384155" x2="404.9366455" y2="949.4946899">
<stop offset="0%" style="stop-color:rgb(20,27,49);stop-opacity: 1"/>
<stop offset="62.931000000000004%" style="stop-color:rgb(44,112,170);stop-opacity: 1"/>
<stop offset="100%" style="stop-color:rgb(23,156,196);stop-opacity: 1"/>
</linearGradient>
<path style="stroke: none; stroke-width: 1; stroke-dasharray: none; stroke-linecap: butt; stroke-dashoffset: 0; stroke-linejoin: miter; stroke-miterlimit: 4; fill: url(#SVGID_4_49908); fill-rule: nonzero; opacity: 1;"  paint-order="stroke"  transform=" translate(-128.50092689999997, -84.26810713427999)" d="M 75.0966797 109.4579544 C 75.7323151 108.6982651 76.38356019999999 107.95399470000001 77.0811768 107.22534180000001 C 86.8333893 97.08552550000002 102.3840714 90.38778690000001 115.79525759999999 86.15506740000001 C 122.30704499999999 84.10850520000001 128.53967289999997 82.46505730000001 134.75688169999998 81.00765990000001 L 95.54675289999997 81.44182590000001 C 88.94194029999997 71.79814910000002 63.03435509999997 63.72051240000001 63.03435509999997 63.72051240000001 C 63.03435509999997 63.72051240000001 73.84084309999997 60.82123190000001 95.26768489999998 59.28633120000001 C 116.69452659999997 57.735908500000015 153.65652459999998 65.30187990000002 162.33894339999998 67.03843690000001 C 171.02127069999997 68.7749024 193.96749869999996 71.5965881 193.96749869999996 71.5965881 C 193.96749869999996 71.5965881 193.95198049999996 71.5965881 193.93655389999998 71.61210630000001 C 192.3861236 71.9687652 143.02066029999997 83.7054748 130.52426139999997 87.4264297 C 117.8263016 91.2094574 87.469017 99.1011505 75.0966797 109.4579544 z" stroke-linecap="round" />
</g>
</g>
</g>
		<g transform="matrix(1.1250005297502552 0 0 1.1250005297502552 18.491188297128872 -0.00000479033502642778)"  >
<g style=""  paint-order="stroke"   >
		<g transform="matrix(1 0 0 1 0 0)"  >
<linearGradient id="SVGID_5_49909" gradientUnits="userSpaceOnUse" gradientTransform="matrix(0 -1 1 0 283.8564453 1053.6182861)"  x1="848.7714844" y1="-174.1389465" x2="936.3634033" y2="-39.7817879">
<stop offset="0%" style="stop-color:rgb(132,57,29);stop-opacity: 1"/>
<stop offset="62.931000000000004%" style="stop-color:rgb(237,144,66);stop-opacity: 1"/>
<stop offset="100%" style="stop-color:rgb(245,192,102);stop-opacity: 1"/>
</linearGradient>
<path style="stroke: none; stroke-width: 1; stroke-dasharray: none; stroke-linecap: butt; stroke-dashoffset: 0; stroke-linejoin: miter; stroke-miterlimit: 4; fill: url(#SVGID_5_49909); fill-rule: nonzero; opacity: 1;"  paint-order="stroke"  transform=" translate(-156.56378500599226, -139.54610584514452)" d="M 204.7080994 55.8642998 C 212.1811371 59.321804099999994 217.3439789 65.7559967 221.4060669 72.9189377 C 224.5690002 78.4694748 226.83255010000002 84.5161591 228.2899475 90.7487869 C 233.1582947 111.41593929999999 233.5614166 133.69549560000002 226.6155548 153.8664856 C 226.0883789 155.4169159 225.4992065 156.9673309 224.8790893 158.4867249 L 221.4060668 159.6805726 L 220.5068969 154.2696229 C 216.909912 161.0294343 210.03764339999998 168.0920411 210.03764339999998 168.0920411 C 214.11524959999997 167.6424409 217.53001399999997 166.89007579999998 221.4990997 165.7426759 C 219.1114807 170.2544557 216.3362579 174.5491639 213.15782159999998 178.533661 L 206.5995635 179.5104371 L 206.69258109999998 174.0219727 C 201.932785 180.0065766 193.28149409999997 185.66566469999998 193.28149409999997 185.66566469999998 C 197.6226501 185.88273619999998 202.35142509999997 185.6190949 207.37477109999998 184.9989929 C 202.64601129999997 189.75878899999998 197.26599119999997 193.8208923 191.32794189999998 196.999237 C 202.80101009999998 206.6118774 225.59222409999998 213.7903289 225.59222409999998 213.7903289 C 228.49151609999998 214.64305109999998 226.77056879999998 215.5887756 226.77056879999998 215.5887756 C 198.10328669999998 229.54257199999998 145.60601799999998 220.9997406 121.20230099999998 216.3795166 C 106.93849939999998 213.66627499999998 90.20938869999998 210.9840698 82.84488679999998 210.6894836 C 81.30998229999999 210.62741079999998 80.65882879999998 208.72042839999997 81.83716589999999 207.74365229999998 C 95.68242649999999 196.2860107 147.52853399999998 153.46336359999998 158.84658819999999 145.58720389999996 C 171.93215949999998 136.48623649999996 170.30422979999997 142.09875479999997 170.30422979999997 142.09875479999997 C 168.00953679999998 152.33158869999997 164.67619329999997 161.23100269999998 167.03277589999996 171.46374499999996 C 183.11073309999995 166.81246939999997 194.83190919999996 155.61848439999997 202.86308289999997 140.93592819999995 C 210.90977479999998 126.26900469999995 213.80906679999995 110.96634659999995 214.16563419999997 94.23723589999994 C 214.27416999999997 89.24492629999995 213.68499759999997 84.15949239999995 212.80125429999998 79.24468219999994 C 211.312912 71.0274658 208.7236328 63.1668205 204.7080994 55.8642998 z" stroke-linecap="round" />
</g>
		<g transform="matrix(1 0 0 1 -1.5647164383574932 2.8993830060590824)"  >
<linearGradient id="SVGID_6_49910" gradientUnits="userSpaceOnUse" gradientTransform="matrix(0 -1 1 0 283.8564453 1053.6182861)"  x1="866.9041138" y1="-189.0958557" x2="918.9307251" y2="-55.8715858">
<stop offset="0%" style="stop-color:rgb(246,221,151);stop-opacity: 1"/>
<stop offset="29.368%" style="stop-color:rgb(246,221,151);stop-opacity: 1"/>
<stop offset="100%" style="stop-color:rgb(207,119,53);stop-opacity: 1"/>
</linearGradient>
<path style="stroke: none; stroke-width: 1; stroke-dasharray: none; stroke-linecap: butt; stroke-dashoffset: 0; stroke-linejoin: miter; stroke-miterlimit: 4; fill: url(#SVGID_6_49910); fill-rule: nonzero; opacity: 1;"  paint-order="stroke"  transform=" translate(-154.99906856763477, -142.4454888512036)" d="M 212.5996857 66.4226685 C 227.12713630000002 90.702324 226.01087950000002 120.0673142 217.2664795 146.1454163 C 214.4602051 154.5331574 210.847702 162.8589173 205.1732025 169.6187439 L 205.1576843 169.6342621 C 204.5220489 170.3939514 203.8708038 171.1382141 203.1731872 171.8668671 C 193.4209747 182.00668340000001 176.8961639 187.2124939 163.4849853 191.4452057 C 156.9731903 193.4917755 146.4968719 197.6684418 140.279663 199.1258392 L 183.09510790000002 199.4526672 C 189.69992050000002 209.09634400000002 212.416107 215.0406189 212.416107 215.0406189 C 212.416107 215.0406189 205.858383 216.7290649 184.43153360000002 218.2639771 C 163.00469950000002 219.8143921 127.76779920000001 212.08866890000002 119.08538030000003 210.3521119 C 110.40305300000003 208.6156464 86.28687260000002 207.4956208 86.28687260000002 207.4956208 C 86.28687260000002 207.4956208 86.30239080000003 207.4956208 86.31781740000002 207.4801026 L 164.39712500000002 146.03688060000002 C 164.39712500000002 146.03688060000002 166.0560911 144.8895875 165.4358823 147.37022410000003 C 164.8156735 149.85086070000006 160.9396207 173.71186840000001 164.3505704 175.88250740000004 C 164.3505704 175.88250740000004 187.59136940000002 172.19248970000004 201.17308020000002 149.68032840000004 C 226.9410858 106.9042511 213.0647888 67.7095413 212.5996857 66.4226685 z" stroke-linecap="round" />
</g>
		<g transform="matrix(1 0 0 1 -4.810347955992256 55.278000635036136)"  >
<linearGradient id="SVGID_7_49911" gradientUnits="userSpaceOnUse" gradientTransform="matrix(0 -1 1 0 283.8564453 1053.6182861)"  x1="824.640564" y1="-177.0325623" x2="862.7381592" y2="-79.4763184">
<stop offset="0%" style="stop-color:rgb(132,57,29);stop-opacity: 1"/>
<stop offset="62.931000000000004%" style="stop-color:rgb(237,144,66);stop-opacity: 1"/>
<stop offset="100%" style="stop-color:rgb(245,192,102);stop-opacity: 1"/>
</linearGradient>
<path style="stroke: none; stroke-width: 1; stroke-dasharray: none; stroke-linecap: butt; stroke-dashoffset: 0; stroke-linejoin: miter; stroke-miterlimit: 4; fill: url(#SVGID_7_49911); fill-rule: nonzero; opacity: 1;"  paint-order="stroke"  transform=" translate(-151.75343705, -194.82410648018066)" d="M 205.1576843 169.6342621 C 204.5220489 170.3939514 203.8708038 171.1382141 203.1731872 171.8668671 C 193.4209747 182.00668340000001 177.8703002 188.70442200000002 164.4591064 192.9371338 C 157.9473266 194.98370359999998 151.71469109999998 196.6271515 145.4974823 198.084549 L 184.7076111 197.6503907 C 191.3124237 207.2940675 217.2200012 215.3717042 217.2200012 215.3717042 C 217.2200012 215.3717042 206.4135132 218.2709809 184.9866791 219.80587780000002 C 163.559845 221.3563081 126.5978394 213.7903291 117.9154206 212.05377210000003 C 109.23309330000001 210.31730660000002 86.2868729 207.49562090000003 86.2868729 207.49562090000003 C 86.2868729 207.49562090000003 86.30239110000001 207.49562090000003 86.3178177 207.48010270000003 C 87.8682404 207.12344380000002 137.2337036 195.38673420000003 149.7301026 191.66578690000003 C 162.4280548 187.8827515 192.7853394 179.9910583 205.1576843 169.6342621 z" stroke-linecap="round" />
</g>
</g>
</g>
</g>
</g>
<g transform="matrix(1.9211538461538462 0 0 1.9211538461538462 641.59215625 690.5434922201465)" id="text-logo"  >
<g style=""  paint-order="stroke"   >
		<g transform="matrix(1 0 0 1 0 0)" id="text-logo-path-0"  >
<path style="stroke: none; stroke-width: 0; stroke-dasharray: none; stroke-linecap: butt; stroke-dashoffset: 0; stroke-linejoin: miter; stroke-miterlimit: 4; fill: rgb(255,255,255); fill-rule: nonzero; opacity: 1;"  paint-order="stroke"  transform=" translate(-111.92, 17.85)" d="M 11.99 -35.7 L 3.32 -35.7 L 3.32 0 L 11.48 0 L 11.48 -21.98 L 25.25 0 L 33.91 0 L 33.91 -35.7 L 25.76 -35.7 L 25.76 -13.72 Z M 61 0.82 C 72.01 0.82 79.66 -6.94 79.66 -17.9 C 79.66 -28.87 71.96 -36.52 61 -36.52 C 50.03 -36.52 42.33 -28.87 42.33 -17.9 C 42.33 -6.89 49.98 0.82 61 0.82 Z M 61 -6.83 C 54.83 -6.83 50.49 -11.37 50.49 -17.85 C 50.49 -24.33 54.83 -28.87 61 -28.87 C 67.17 -28.87 71.5 -24.33 71.5 -17.85 C 71.5 -11.37 67.17 -6.83 61 -6.83 Z M 92.62 -35.7 L 83.95 -35.7 L 96.19 0 L 104.86 0 L 117.1 -35.7 L 108.43 -35.7 L 100.52 -11.63 Z M 132.29 -35.7 L 124.13 -35.7 L 124.13 0 L 132.29 0 Z M 157.69 -35.7 L 142.19 -35.7 L 142.19 0 L 158.92 0 C 164.83 0 168.96 -3.72 168.96 -9.64 C 168.96 -13.92 166.77 -17.09 163.3 -18.46 C 165.85 -20.04 167.43 -22.8 167.43 -26.37 C 167.43 -32.13 163.46 -35.7 157.69 -35.7 Z M 155.86 -21.32 L 150.35 -21.32 L 150.35 -28.05 L 155.86 -28.05 C 157.85 -28.05 159.27 -26.88 159.27 -24.74 C 159.27 -22.54 157.85 -21.32 155.86 -21.32 Z M 157.44 -7.65 L 150.35 -7.65 L 150.35 -14.23 L 157.44 -14.23 C 159.38 -14.23 160.8 -13.01 160.8 -10.91 C 160.8 -8.82 159.38 -7.65 157.44 -7.65 Z M 185.64 -35.7 L 177.48 -35.7 L 177.48 0 L 185.64 0 Z M 194 -35.7 L 194 -28.05 L 210.32 -28.05 L 194 -6.12 L 194 0 L 220.52 0 L 220.52 -7.65 L 204.2 -7.65 L 220.52 -29.58 L 220.52 -35.7 Z" stroke-linecap="round" />
</g>
</g>
</g>
<g transform="matrix(1.9211538461538462 0 0 1.9211538461538462 640.2825033130946 759.475281900565)" id="tagline-8f226be4-e75e-4e91-9b0d-b1fbde295885-logo"  >
<g style=""  paint-order="stroke"   >
		<g transform="matrix(1 0 0 1 0 0)" id="tagline-8f226be4-e75e-4e91-9b0d-b1fbde295885-logo-path-0"  >
<path style="stroke: none; stroke-width: 0; stroke-dasharray: none; stroke-linecap: butt; stroke-dashoffset: 0; stroke-linejoin: miter; stroke-miterlimit: 4; fill: rgb(150,201,250); fill-rule: nonzero; opacity: 1;"  paint-order="stroke"  transform=" translate(-209.82, 6.795)" d="M 2.95 -9.08 L 2.95 -15.21 L 1.13 -15.21 L 1.13 -9.08 Z M 4.54 -9.08 L 6.36 -9.08 L 6.36 -15.21 L 4.54 -15.21 Z M 17.02 -4.72 L 15.3 -4.09 C 16.36 -1.2 18.43 0.23 21.52 0.23 C 24.81 0.23 27.12 -1.66 27.12 -4.2 C 27.12 -6.01 26.01 -7.06 24.6 -7.58 C 23.9 -7.83 22.97 -8.1 21.81 -8.38 C 19.84 -8.83 18.91 -9.1 18.18 -9.83 C 17.79 -10.17 17.61 -10.64 17.61 -11.21 C 17.61 -12.78 19.18 -13.85 21.18 -13.85 C 23.24 -13.85 24.33 -12.98 25.22 -10.78 L 26.9 -11.46 C 25.83 -14.12 23.99 -15.43 21.18 -15.43 C 18.18 -15.43 15.8 -13.66 15.8 -11.21 C 15.8 -9.28 17 -8.15 18.45 -7.6 C 19.18 -7.31 20.13 -7.04 21.34 -6.74 C 23.17 -6.29 24.08 -6.06 24.78 -5.42 C 25.13 -5.11 25.31 -4.7 25.31 -4.2 C 25.31 -2.5 23.85 -1.36 21.52 -1.36 C 19.04 -1.36 17.82 -2.52 17.02 -4.72 Z M 37.88 0 L 37.88 -6.81 L 46.96 -6.81 L 46.96 0 L 48.78 0 L 48.78 -15.21 L 46.96 -15.21 L 46.96 -8.4 L 37.88 -8.4 L 37.88 -15.21 L 36.07 -15.21 L 36.07 0 Z M 59.53 0 L 59.53 -15.21 L 57.72 -15.21 L 57.72 0 Z M 70.29 0 L 70.29 -5.9 L 75.97 -5.9 C 78.58 -5.9 80.62 -7.94 80.62 -10.55 C 80.62 -13.16 78.58 -15.21 75.97 -15.21 L 68.48 -15.21 L 68.48 0 Z M 70.29 -7.49 L 70.29 -13.62 L 75.85 -13.62 C 77.69 -13.62 78.92 -12.39 78.92 -10.55 C 78.92 -8.72 77.69 -7.49 75.85 -7.49 Z M 102.59 0 L 102.59 -6.81 L 111.67 -6.81 L 111.67 0 L 113.48 0 L 113.48 -15.21 L 111.67 -15.21 L 111.67 -8.4 L 102.59 -8.4 L 102.59 -15.21 L 100.77 -15.21 L 100.77 0 Z M 122.43 0 L 133.32 0 L 133.32 -1.59 L 124.24 -1.59 L 124.24 -6.81 L 131.96 -6.81 L 131.96 -8.4 L 124.24 -8.4 L 124.24 -13.62 L 133.32 -13.62 L 133.32 -15.21 L 122.43 -15.21 Z M 144.22 0 L 145.78 -3.74 L 153.41 -3.74 L 154.97 0 L 156.93 0 L 150.57 -15.21 L 148.62 -15.21 L 142.26 0 Z M 146.44 -5.33 L 149.6 -12.87 L 152.75 -5.33 Z M 170.09 0 L 176.45 -15.21 L 174.49 -15.21 L 169.11 -2.34 L 163.74 -15.21 L 161.78 -15.21 L 168.14 0 Z M 193.24 -5.86 L 193.42 -6.13 L 199.3 -15.21 L 197.12 -15.21 L 192.33 -7.81 L 187.57 -15.21 L 185.39 -15.21 L 191.24 -6.13 L 191.43 -5.86 L 191.43 0 L 193.24 0 Z M 210.63 -0.98 C 210.63 -1.63 210.1 -2.16 209.45 -2.16 C 208.74 -2.16 208.24 -1.68 208.24 -0.98 C 208.24 -0.27 208.74 0.23 209.45 0.23 C 209.31 0.77 208.99 1.23 208.52 1.61 L 208.67 1.84 C 209.65 1.18 210.63 0.02 210.63 -0.98 Z M 232.51 -4.72 L 230.78 -4.09 C 231.85 -1.2 233.91 0.23 237 0.23 C 240.29 0.23 242.61 -1.66 242.61 -4.2 C 242.61 -6.01 241.49 -7.06 240.09 -7.58 C 239.38 -7.83 238.45 -8.1 237.3 -8.38 C 235.32 -8.83 234.39 -9.1 233.66 -9.83 C 233.28 -10.17 233.1 -10.64 233.1 -11.21 C 233.1 -12.78 234.66 -13.85 236.66 -13.85 C 238.73 -13.85 239.82 -12.98 240.7 -10.78 L 242.38 -11.46 C 241.31 -14.12 239.47 -15.43 236.66 -15.43 C 233.66 -15.43 231.28 -13.66 231.28 -11.21 C 231.28 -9.28 232.48 -8.15 233.94 -7.6 C 234.66 -7.31 235.62 -7.04 236.82 -6.74 C 238.66 -6.29 239.57 -6.06 240.27 -5.42 C 240.61 -5.11 240.79 -4.7 240.79 -4.2 C 240.79 -2.5 239.34 -1.36 237 -1.36 C 234.53 -1.36 233.3 -2.52 232.51 -4.72 Z M 253.37 0 L 253.37 -6.81 L 262.44 -6.81 L 262.44 0 L 264.26 0 L 264.26 -15.21 L 262.44 -15.21 L 262.44 -8.4 L 253.37 -8.4 L 253.37 -15.21 L 251.55 -15.21 L 251.55 0 Z M 275.02 0 L 275.02 -15.21 L 273.2 -15.21 L 273.2 0 Z M 285.78 0 L 285.78 -5.9 L 291.45 -5.9 C 294.06 -5.9 296.1 -7.94 296.1 -10.55 C 296.1 -13.16 294.06 -15.21 291.45 -15.21 L 283.96 -15.21 L 283.96 0 Z M 285.78 -7.49 L 285.78 -13.62 L 291.34 -13.62 C 293.18 -13.62 294.4 -12.39 294.4 -10.55 C 294.4 -8.72 293.18 -7.49 291.34 -7.49 Z M 316.26 0 L 327.15 0 L 327.15 -1.59 L 318.07 -1.59 L 318.07 -6.81 L 325.79 -6.81 L 325.79 -8.4 L 318.07 -8.4 L 318.07 -13.62 L 327.15 -13.62 L 327.15 -15.21 L 316.26 -15.21 Z M 338.05 0 L 339.61 -3.74 L 347.24 -3.74 L 348.81 0 L 350.76 0 L 344.4 -15.21 L 342.45 -15.21 L 336.1 0 Z M 340.27 -5.33 L 343.43 -12.87 L 346.58 -5.33 Z M 360.06 -4.72 L 358.34 -4.09 C 359.4 -1.2 361.47 0.23 364.56 0.23 C 367.85 0.23 370.16 -1.66 370.16 -4.2 C 370.16 -6.01 369.05 -7.06 367.64 -7.58 C 366.94 -7.83 366.01 -8.1 364.85 -8.38 C 362.88 -8.83 361.95 -9.1 361.22 -9.83 C 360.83 -10.17 360.65 -10.64 360.65 -11.21 C 360.65 -12.78 362.22 -13.85 364.22 -13.85 C 366.28 -13.85 367.37 -12.98 368.26 -10.78 L 369.94 -11.46 C 368.87 -14.12 367.03 -15.43 364.22 -15.43 C 361.22 -15.43 358.84 -13.66 358.84 -11.21 C 358.84 -9.28 360.04 -8.15 361.49 -7.6 C 362.22 -7.31 363.17 -7.04 364.38 -6.74 C 366.21 -6.29 367.12 -6.06 367.83 -5.42 C 368.17 -5.11 368.35 -4.7 368.35 -4.2 C 368.35 -2.5 366.89 -1.36 364.56 -1.36 C 362.08 -1.36 360.86 -2.52 360.06 -4.72 Z M 386.96 -5.86 L 387.14 -6.13 L 393.02 -15.21 L 390.84 -15.21 L 386.05 -7.81 L 381.28 -15.21 L 379.11 -15.21 L 384.96 -6.13 L 385.14 -5.86 L 385.14 0 L 386.96 0 Z M 403.16 0.23 C 403.82 0.23 404.34 -0.27 404.34 -0.98 C 404.34 -1.63 403.82 -2.16 403.16 -2.16 C 402.46 -2.16 401.96 -1.68 401.96 -0.98 C 401.96 -0.27 402.46 0.23 403.16 0.23 Z M 403.98 -4.43 L 404.07 -15.21 L 402.26 -15.21 L 402.35 -4.43 Z M 415.1 -9.08 L 415.1 -15.21 L 413.29 -15.21 L 413.29 -9.08 Z M 416.69 -9.08 L 418.51 -9.08 L 418.51 -15.21 L 416.69 -15.21 Z" stroke-linecap="round" />
</g>
</g>
</g>
</svg>